<?xml version="1.0" encoding="UTF-8" standalone="no"?>
<!DOCTYPE svg PUBLIC "-//W3C//DTD SVG 1.1//EN"
 "http://www.w3.org/Graphics/SVG/1.1/DTD/svg11.dtd">
<!-- Generated by graphviz version 7.0.2 (20221119.0110)
 -->
<!-- Pages: 1 -->
<svg width="544pt" height="253pt"
 viewBox="0.00 0.00 543.92 252.75" xmlns="http://www.w3.org/2000/svg" xmlns:xlink="http://www.w3.org/1999/xlink">
<g id="graph0" class="graph" transform="scale(1 1) rotate(0) translate(4 248.75)">
<polygon fill="white" stroke="none" points="-4,4 -4,-248.75 539.92,-248.75 539.92,4 -4,4"/>
<!-- Input cart position -->
<g id="node1" class="node">
<title>Input cart position</title>
<ellipse fill="lightgray" stroke="black" cx="60.1" cy="-183.94" rx="60.21" ry="60.21"/>
<text text-anchor="middle" x="60.1" y="-181.74" font-family="Times New Roman,serif" font-size="9.00">Input cart position</text>
</g>
<!-- Output F -->
<g id="node5" class="node">
<title>Output F</title>
<ellipse fill="lightblue" stroke="black" cx="266.1" cy="-36.06" rx="36.12" ry="36.12"/>
<text text-anchor="middle" x="266.1" y="-33.86" font-family="Times New Roman,serif" font-size="9.00">Output F</text>
</g>
<!-- Input cart position&#45;&gt;Output F -->
<g id="edge1" class="edge">
<title>Input cart position&#45;&gt;Output F</title>
<path fill="none" stroke="green" stroke-width="0.28" d="M104.56,-142.66C112.56,-135.92 120.95,-129.16 129.1,-123.12 160.47,-99.89 198.15,-76.52 226.05,-60.01"/>
<polygon fill="green" stroke="green" stroke-width="0.28" points="227.53,-63.2 234.38,-55.11 223.99,-57.16 227.53,-63.2"/>
<text text-anchor="middle" x="189.6" y="-93.92" font-family="Times New Roman,serif" font-size="14.00">0.89</text>
</g>
<!-- Input cart &#160;&#160;&#160;speed -->
<g id="node2" class="node">
<title>Input cart &#160;&#160;&#160;speed</title>
<ellipse fill="lightgray" stroke="black" cx="197.1" cy="-183.94" rx="58.88" ry="58.88"/>
<text text-anchor="middle" x="197.1" y="-181.74" font-family="Times New Roman,serif" font-size="9.00">Input cart &#160;&#160;&#160;speed</text>
</g>
<!-- Input cart &#160;&#160;&#160;speed&#45;&gt;Output F -->
<g id="edge2" class="edge">
<title>Input cart &#160;&#160;&#160;speed&#45;&gt;Output F</title>
<path fill="none" stroke="red" stroke-width="0.36" d="M222.01,-130.27C230.08,-113.22 238.91,-94.56 246.53,-78.44"/>
<polygon fill="red" stroke="red" stroke-width="0.36" points="249.52,-80.3 250.63,-69.77 243.19,-77.31 249.52,-80.3"/>
<text text-anchor="middle" x="254.6" y="-93.92" font-family="Times New Roman,serif" font-size="14.00">&#45;1.28</text>
</g>
<!-- Input pole_1 &#160;angle -->
<g id="node3" class="node">
<title>Input pole_1 &#160;angle</title>
<ellipse fill="lightgray" stroke="black" cx="335.1" cy="-183.94" rx="60.62" ry="60.62"/>
<text text-anchor="middle" x="335.1" y="-181.74" font-family="Times New Roman,serif" font-size="9.00">Input pole_1 &#160;angle</text>
</g>
<!-- Input pole_1 &#160;angle&#45;&gt;Output F -->
<g id="edge3" class="edge">
<title>Input pole_1 &#160;angle&#45;&gt;Output F</title>
<path fill="none" stroke="green" stroke-width="0.11" d="M309.41,-128.62C301.47,-111.83 292.86,-93.62 285.42,-77.9"/>
<polygon fill="green" stroke="green" stroke-width="0.11" points="288.7,-76.65 281.26,-69.11 282.37,-79.64 288.7,-76.65"/>
<text text-anchor="middle" x="309.6" y="-93.92" font-family="Times New Roman,serif" font-size="14.00">0.03</text>
</g>
<!-- Input pole_2 &#160;angle -->
<g id="node4" class="node">
<title>Input pole_2 &#160;angle</title>
<ellipse fill="lightgray" stroke="black" cx="475.1" cy="-183.94" rx="60.62" ry="60.62"/>
<text text-anchor="middle" x="475.1" y="-181.74" font-family="Times New Roman,serif" font-size="9.00">Input pole_2 &#160;angle</text>
</g>
<!-- Input pole_2 &#160;angle&#45;&gt;Output F -->
<g id="edge4" class="edge">
<title>Input pole_2 &#160;angle&#45;&gt;Output F</title>
<path fill="none" stroke="green" stroke-width="0.33" d="M430.36,-142.97C422.14,-136.12 413.5,-129.25 405.1,-123.12 373.04,-99.71 334.53,-76.2 306.18,-59.67"/>
<polygon fill="green" stroke="green" stroke-width="0.33" points="308.19,-56.8 297.79,-54.82 304.69,-62.86 308.19,-56.8"/>
<text text-anchor="middle" x="387.6" y="-93.92" font-family="Times New Roman,serif" font-size="14.00">1.17</text>
</g>
</g>
</svg>
